<svg width="139" height="93" viewBox="0 0 139 93" fill="none" xmlns="http://www.w3.org/2000/svg">
<path d="M69.4678 0.00709185C86.8028 0.00709185 104.138 -0.0134036 121.473 0.01529C129.716 0.0316864 136.377 5.20473 138.267 13.0381C138.623 14.5097 138.742 16.0714 138.746 17.5922C138.779 36.8743 138.783 56.1564 138.759 75.4385C138.746 85.5796 131.389 92.9703 121.239 92.9785C86.6716 93.0072 52.104 93.0072 17.5323 92.9785C7.383 92.9703 0.0292408 85.5755 0.0169435 75.4344C-0.007651 56.1523 -0.00355191 36.8702 0.0169435 17.5881C0.0251417 7.32806 7.34201 0.0234882 17.6143 0.0111909C34.9002 -0.0093045 52.1819 0.00709185 69.4678 0.00709185ZM6.72074 33.0006C6.69205 33.5868 6.64286 34.132 6.64286 34.6813C6.64286 48.1304 6.63056 61.5836 6.64286 75.0327C6.65105 81.415 10.3718 86.2678 16.7868 86.2678C51.047 86.2678 85.3113 86.2063 119.571 86.3333C125.068 86.3538 132.931 81.4354 132.857 74.9138C132.714 61.5139 132.812 48.114 132.812 34.7141V31.3163H6.72074V33.0006ZM132.792 25.073C132.615 21.2281 133.472 17.379 132.132 13.6734C130.754 9.8613 125.515 5.69388 120.907 5.69388C86.5446 5.68568 52.186 5.69388 17.8234 5.69388C17.5159 5.69388 17.2085 5.69388 16.9052 5.71027C11.6502 5.99311 6.86831 11.7182 6.66745 16.9896C6.57727 19.3917 6.63876 21.7978 6.65515 24.1999C6.65515 24.4827 6.78632 24.7656 6.86421 25.073H132.792Z" fill="white"/>
<path d="M109.127 78.0546C107.032 78.0546 87.5005 78.0956 85.4099 78.0423C82.8603 77.9767 81.2412 76.3945 81.2617 74.0949C81.2863 71.8158 82.971 70.254 85.5001 70.2376C89.6402 70.213 111.213 70.213 115.349 70.2376C117.841 70.254 119.588 71.8732 119.608 74.1072C119.629 76.3289 117.907 77.9808 115.411 78.0423C113.316 78.0915 111.221 78.0546 109.127 78.0505V78.0546Z" fill="white"/>
</svg>
