<svg width="108" height="111" viewBox="0 0 108 111" fill="none" xmlns="http://www.w3.org/2000/svg">
<path d="M29.473 97.4039C29.9995 98.3102 30.4986 99.1469 30.9753 99.9958C31.7015 101.285 31.4347 102.445 30.182 103.197C26.0433 105.682 21.8978 108.151 17.742 110.607C16.4221 111.386 15.3036 110.997 14.45 109.53C10.9327 103.489 7.41526 97.4474 3.89787 91.4078C2.76384 89.4612 1.62464 87.5165 0.497493 85.5665C-0.430039 83.9626 -0.0583377 82.7415 1.59367 81.9587C5.76842 79.9791 9.94489 78.0048 14.1214 76.0304C15.7889 75.2424 16.6906 75.519 17.6353 77.0967C17.7523 77.2915 17.8866 77.4742 18.0208 77.6742C20.2338 76.3226 22.4038 74.9797 24.5909 73.6664C27.716 71.7912 30.9925 70.3108 34.6234 69.742C39.5502 68.9697 44.2343 69.7786 48.6397 72.0538C53.4649 74.5466 58.5844 75.6755 63.9568 75.7956C67.2591 75.8686 69.5771 77.6412 70.527 80.8715C70.5666 81.0089 70.6199 81.1428 70.6957 81.3603C72.0603 80.7114 73.3991 80.08 74.7327 79.4433C77.2951 78.2187 79.8522 76.9767 82.4214 75.7642C84.2817 74.8858 86.1987 74.2369 88.3033 74.43C90.8484 74.6649 93.2335 76.8254 93.6723 79.3459C93.9063 80.6941 93.6499 81.9778 92.8273 83.0528C92.1132 83.987 91.3474 84.9211 90.4509 85.6656C84.4692 90.6302 78.0694 94.939 70.9538 98.0927C67.9337 99.4304 64.8207 100.22 61.484 100.307C55.1616 100.471 48.8668 100.452 42.6701 98.9764C41.2246 98.632 39.81 98.1449 38.3972 97.6735C35.6422 96.7568 32.8613 96.4663 30.0219 97.2178C29.8636 97.2595 29.7122 97.3204 29.473 97.4022V97.4039ZM20.2321 81.4507C20.3061 81.623 20.3388 81.7325 20.3955 81.83C22.5604 85.5491 24.7389 89.2612 26.8831 92.9925C27.1843 93.5178 27.4802 93.4343 27.9328 93.2899C31.0028 92.3088 34.1313 92.1071 37.2632 92.8777C39.2628 93.3699 41.1988 94.1179 43.1967 94.6207C49.1284 96.1114 55.1685 96.1167 61.231 95.9566C64.0412 95.8818 66.6603 95.2347 69.2071 94.1075C75.927 91.1312 81.9517 87.0381 87.6287 82.3901C88.0933 82.0091 88.5132 81.5621 88.909 81.1063C89.6128 80.2957 89.5646 79.6816 88.6646 79.1059C88.2861 78.8641 87.713 78.7023 87.2931 78.798C86.1866 79.0519 85.0646 79.3546 84.039 79.8347C79.2035 82.0944 74.3989 84.4166 69.5857 86.725C69.2794 86.8711 68.9645 87.0416 68.7201 87.2712C67.2781 88.628 65.5676 89.1951 63.6178 89.1881C58.7152 89.1707 53.8125 89.1829 48.9081 89.1829C47.1047 89.1829 46.0894 88.3967 46.0825 86.9998C46.0756 85.6082 47.0892 84.8237 48.8995 84.8237C53.8607 84.8237 58.8201 84.8324 63.7813 84.8185C65.3611 84.815 66.4245 83.8287 66.409 82.451C66.3936 81.075 65.3886 80.1931 63.8295 80.1531C57.8479 80.0035 52.145 78.751 46.7743 75.9817C41.9473 73.4924 36.9122 73.0767 31.7841 74.9745C27.6059 76.5192 24.0127 79.1476 20.2303 81.4507H20.2321ZM5.21087 85.0707C9.26 92.0201 13.2644 98.8929 17.2998 105.82C20.3198 104.019 23.2693 102.261 26.2567 100.479C22.3745 93.817 18.5284 87.2155 14.6652 80.5845C11.4747 82.0978 8.37377 83.5712 5.21087 85.0707Z" fill="white"/>
<path d="M87.5684 43.7932C87.5736 56.7979 77.1419 67.3376 64.2614 67.3429C51.3482 67.3481 40.8907 56.7805 40.9027 43.7393C40.9148 30.7416 51.362 20.1914 64.2287 20.1827C77.1419 20.174 87.5632 30.7155 87.5684 43.7932ZM83.2543 43.7532C83.2405 33.1039 74.743 24.5315 64.2115 24.5385C53.7178 24.5454 45.1807 33.21 45.21 43.8211C45.2392 54.4687 53.7901 63.0045 64.4059 62.9871C74.7929 62.968 83.268 54.3208 83.2543 43.755V43.7532Z" fill="white"/>
<path d="M87.0155 23.1527C85.8798 23.0883 85.2207 22.6865 84.8421 21.8846C84.4618 21.0792 84.51 20.2407 85.1175 19.6093C87.3752 17.2644 89.6587 14.9439 91.9819 12.6668C92.7907 11.8736 94.0779 12.0023 94.8591 12.8025C95.6301 13.5905 95.7471 14.9091 94.9693 15.7197C92.7356 18.0472 90.4589 20.3347 88.1599 22.596C87.8209 22.93 87.2651 23.0379 87.0138 23.1544L87.0155 23.1527Z" fill="white"/>
<path d="M35.4712 12.1526C35.738 12.3057 36.3299 12.5057 36.7326 12.9006C38.8905 15.0176 41.0106 17.1746 43.1238 19.3386C44.0582 20.2953 44.0651 21.666 43.1978 22.5201C42.3219 23.383 41.0657 23.383 40.1209 22.4453C37.9544 20.2953 35.8137 18.1192 33.6729 15.9413C32.9812 15.2385 32.7695 14.3948 33.1756 13.4729C33.5456 12.631 34.2271 12.2048 35.4712 12.1526Z" fill="white"/>
<path d="M66.3885 6.88966C66.3885 8.39434 66.4006 9.90077 66.3851 11.4055C66.3713 12.771 65.4679 13.726 64.234 13.7155C63.0484 13.7068 62.1054 12.764 62.0933 11.4594C62.0658 8.36129 62.0623 5.2632 62.0985 2.16686C62.1123 0.881351 63.1103 -0.0371166 64.3115 0.00115285C65.5023 0.0376828 66.3679 0.933536 66.3851 2.19991C66.4057 3.76374 66.3903 5.32583 66.3903 6.88966H66.3885Z" fill="white"/>
<path d="M27.7047 45.9382C26.2145 45.9382 24.7242 45.9486 23.234 45.9347C21.8917 45.9225 20.9367 45.0075 20.9349 43.762C20.9332 42.527 21.8969 41.5928 23.2374 41.5876C26.2472 41.5737 29.2552 41.572 32.2649 41.5893C33.6055 41.598 34.533 42.5461 34.5106 43.809C34.4883 45.0336 33.5676 45.9208 32.2615 45.9347C30.742 45.9503 29.2242 45.9382 27.7047 45.9382Z" fill="white"/>
<path d="M100.828 45.9388C99.3099 45.9388 97.7921 45.9493 96.2726 45.9353C94.9183 45.9232 93.989 45.0256 93.9873 43.7644C93.9873 42.5067 94.9166 41.5935 96.2726 41.5883C99.2806 41.5726 102.287 41.5726 105.295 41.59C106.632 41.5987 107.56 42.545 107.539 43.8079C107.518 45.0238 106.586 45.9249 105.295 45.9388C103.806 45.9545 102.316 45.9423 100.826 45.9406L100.828 45.9388Z" fill="white"/>
<path d="M62.4656 32.7059C62.7306 30.1106 63.0369 29.5626 64.2157 29.5418C64.99 29.5278 65.5992 29.8827 65.8092 30.615C65.9967 31.2656 65.9744 31.9788 66.0484 32.7059C66.5594 32.8208 67.0929 32.9182 67.6126 33.0626C68.9187 33.4226 70.0527 34.0715 70.877 35.1848C71.512 36.0406 71.407 37.0478 70.6499 37.6688C69.9168 38.2689 69.0288 38.1141 68.2407 37.4531C67.6694 36.9747 66.9673 36.4581 66.2738 36.3729C64.8954 36.2041 63.4671 36.1815 62.0904 36.3537C60.4677 36.5572 59.5109 37.8915 59.6296 39.3944C59.7466 40.8782 60.9323 41.9759 62.543 42.0333C63.6598 42.0733 64.7801 42.0367 65.8986 42.0454C69.3489 42.0681 71.9921 44.4964 72.307 47.9268C72.6013 51.131 70.2919 54.0516 66.9724 54.6709C66.6661 54.7283 66.3581 54.7805 65.964 54.8518C65.964 55.3702 65.9898 55.8885 65.9589 56.4034C65.8952 57.475 65.1897 58.1482 64.1881 58.1325C63.2485 58.1186 62.5843 57.4193 62.531 56.3861C62.4518 54.8709 62.4157 54.9579 61.008 54.3508C59.9463 53.8916 58.9344 53.2497 58.012 52.5417C57.1843 51.905 57.1809 50.8004 57.8193 50.0716C58.4543 49.3497 59.4937 49.2697 60.2818 49.9759C62.2591 51.7467 64.5736 51.5728 66.8744 51.0857C68.251 50.7952 69.0529 49.3393 68.8499 48.0155C68.6296 46.5804 67.5386 45.5819 66.0724 45.5349C64.9832 45.5001 63.8939 45.5297 62.8029 45.5245C59.2356 45.5036 56.4788 43.0892 56.1966 39.7458C55.904 36.2754 58.2117 33.4435 61.8254 32.8329C62.0233 32.7999 62.2178 32.7564 62.4638 32.7094L62.4656 32.7059Z" fill="white"/>
</svg>
