<svg width="99" height="99" viewBox="0 0 99 99" fill="none" xmlns="http://www.w3.org/2000/svg">
<path d="M98.5327 46.3853V52.1615C98.4712 52.5041 98.4053 52.8423 98.3526 53.1849C98.0451 55.3065 97.8694 57.4545 97.4126 59.5454C94.8386 71.3789 88.7637 81.0732 79.1264 88.3736C67.1392 97.4574 53.6365 100.471 38.9127 97.3959C27.1275 94.9361 17.5473 88.7602 10.2205 79.2327C2.30518 68.9498 -0.984837 57.2349 0.253861 44.3428C1.25536 33.8973 5.31407 24.6729 12.2719 16.7971C19.9017 8.16574 29.4072 2.78927 40.7707 0.768696C42.6244 0.439255 44.5044 0.250375 46.3712 0C48.2951 0 50.2191 0 52.1474 0C52.3934 0.0527106 52.6394 0.140561 52.8897 0.158132C60.5987 0.702807 67.8068 2.90787 74.3869 6.93583C87.1516 14.759 95.0055 26.0346 97.764 40.7892C98.111 42.6384 98.2823 44.5141 98.5327 46.3809V46.3853ZM92.2118 49.2888C92.2294 25.5778 73.0032 6.33844 49.2791 6.32087C25.5681 6.3033 6.32875 25.5295 6.31118 49.2536C6.29361 72.9646 25.5198 92.2039 49.2439 92.2215C72.9549 92.2391 92.1942 73.0129 92.2118 49.2888Z" fill="white"/>
<path d="M46.1246 58.8104C46.1246 56.9173 46.1114 55.0241 46.1246 53.1353C46.1422 50.8951 47.1788 49.7486 49.4146 49.5949C54.0883 49.2742 57.3212 46.9681 58.9157 42.58C60.4839 38.2621 58.7576 33.4874 54.857 30.8475C51.2551 28.4096 46.2344 28.6908 42.8522 31.4932C40.4407 33.4918 39.1756 36.0351 39.057 39.1626C38.9779 41.2051 37.5899 42.6063 35.7538 42.5185C33.9133 42.4262 32.6527 40.8932 32.7581 38.8727C33.193 30.4346 39.2635 23.9117 47.5917 22.9409C54.4485 22.1415 61.2174 26.0508 64.2834 32.5782C67.1781 38.7453 65.7198 46.4279 60.765 51.1894C58.6126 53.2583 56.1089 54.6858 53.2098 55.3755C52.5026 55.5424 52.3796 55.8543 52.384 56.4912C52.4104 59.219 52.4235 61.9423 52.384 64.6701C52.3532 66.963 50.4645 68.4477 48.4043 67.8679C47.0778 67.4945 46.1685 66.3524 46.1422 64.8678C46.1027 62.8472 46.1334 60.8266 46.1334 58.8061H46.1246V58.8104Z" fill="white"/>
<path d="M52.3791 75.9861C52.3966 77.73 51.0525 79.118 49.3175 79.1444C47.5736 79.1707 46.1724 77.8354 46.1329 76.1091C46.0933 74.3213 47.4594 72.9113 49.2384 72.9026C50.9822 72.8982 52.3571 74.2467 52.3747 75.9861H52.3791Z" fill="white"/>
</svg>
