<svg width="104" height="89" viewBox="0 0 104 89" fill="none" xmlns="http://www.w3.org/2000/svg">
<path d="M103.179 51.3561C103.179 51.9154 103.121 52.4579 103.017 52.6397C102.958 52.7431 102.902 52.8438 102.846 52.9501C101.91 54.7453 99.723 55.2095 98.143 53.9372C97.8047 53.6631 97.5027 53.3471 97.1923 53.0367C82.3242 38.1742 67.4588 23.3117 52.5963 8.44355C52.5124 8.35966 52.4341 8.27297 52.3474 8.18069C51.9028 7.69972 51.1478 7.76124 50.7339 8.27018C50.7004 8.31212 50.664 8.35127 50.6277 8.38762C35.7008 23.334 20.7684 38.2721 5.80518 53.1822C5.176 53.8113 4.30634 54.3454 3.45626 54.5691C2.21189 54.8963 1.02065 54.1972 0.419433 53.0955C-0.226521 51.9154 -0.117463 50.7717 0.685085 49.7035C0.92557 49.3819 1.21919 49.1023 1.50441 48.8171C17.2702 33.0513 33.0387 17.2856 48.8045 1.51702C50.8318 -0.510325 52.3474 -0.504732 54.3831 1.5282C70.1265 17.2688 85.8755 33.0094 101.602 48.7667C102.105 49.2701 103.176 50.4417 103.176 51.3533L103.179 51.3561Z" fill="white"/>
<path d="M20.3672 82.7698H82.8262V81.559C82.8262 71.7886 82.8262 62.0182 82.8346 52.2477C82.8346 51.7164 82.8626 51.1656 83.0136 50.6622C83.4246 49.2752 84.7585 48.4168 86.1762 48.5454C87.6024 48.674 88.7293 49.7534 88.9111 51.1963C88.967 51.627 88.9726 52.066 88.9726 52.5022C88.9754 63.3129 88.9754 74.1235 88.9726 84.9341C88.9726 87.957 87.9351 89 84.9319 89C62.7066 89 40.4785 89 18.2532 89C18.119 89 17.9848 89 17.8505 89C15.4009 88.9832 14.2209 87.8116 14.2153 85.334C14.2041 80.5663 14.2125 75.7985 14.2125 71.0307C14.2125 64.8201 14.2069 58.6094 14.2209 52.396C14.2209 51.7975 14.2433 51.1712 14.411 50.6063C14.8165 49.2529 16.2231 48.3916 17.624 48.5482C19.025 48.702 20.1743 49.8345 20.3365 51.2439C20.3812 51.6409 20.3644 52.0492 20.3644 52.4519C20.3644 62.1216 20.3644 71.7914 20.3644 81.4611V82.7698H20.3672Z" fill="white"/>
</svg>
