<svg width="112" height="73" viewBox="0 0 112 73" fill="none" xmlns="http://www.w3.org/2000/svg">
<path d="M97.7536 36.7027C97.7536 43.9683 97.7536 51.231 97.7536 58.4966C97.7536 58.8577 97.771 59.2188 97.7275 59.5742C97.6116 60.5362 96.8431 61.2411 95.8804 61.2988C94.8799 61.3595 94.0419 60.8135 93.8012 59.8659C93.691 59.4297 93.6736 58.9588 93.6736 58.5053C93.6678 43.977 93.6678 29.4458 93.6736 14.9175C93.6736 14.5275 93.6823 14.1288 93.7606 13.7475C93.9752 12.7248 94.7813 12.121 95.8195 12.1586C97.0432 12.2019 97.7478 13.0455 97.7507 14.5131C97.7565 21.9086 97.7507 29.3042 97.7507 36.6998L97.7536 36.7027ZM13.3662 36.7345C13.3662 29.4689 13.3662 22.2062 13.3662 14.9406C13.3662 14.6142 13.3517 14.2848 13.3836 13.9584C13.488 12.9415 14.2623 12.2135 15.2685 12.1644C16.3095 12.1153 17.1331 12.7075 17.3505 13.7215C17.4375 14.1317 17.4433 14.5651 17.4433 14.9868C17.4491 29.4834 17.4462 43.9799 17.4433 58.4764C17.4433 58.8664 17.4433 59.2651 17.3738 59.6493C17.165 60.7557 16.2863 61.3942 15.1699 61.296C14.01 61.192 13.3691 60.3599 13.3662 58.9213C13.3633 51.5257 13.3662 44.1301 13.3662 36.7345ZM87.7087 31.8263C87.7087 37.4885 87.7087 52.8286 87.7087 58.4937C87.7087 58.8548 87.7261 59.2159 87.6797 59.5713C87.5608 60.5044 86.7605 61.2353 85.8151 61.3017C84.8843 61.3682 83.9766 60.7442 83.7592 59.8168C83.6548 59.3777 83.6403 58.9097 83.6403 58.4533C83.6345 47.1923 83.6345 26.2564 83.6403 14.9955C83.6403 14.5708 83.649 14.1404 83.7331 13.7273C83.9302 12.7508 84.7132 12.1528 85.7078 12.1586C86.946 12.1673 87.7058 13.0108 87.7087 14.4408C87.7174 20.2331 87.7116 26.0282 87.7116 31.8205L87.7087 31.8263ZM23.4112 31.8869C23.4112 28.8102 23.4112 25.7336 23.4112 22.6569C23.4112 19.8749 23.3996 17.0928 23.4199 14.3108C23.4286 12.9357 24.284 12.1066 25.5512 12.1644C26.8155 12.2222 27.4825 13.0946 27.4854 14.7384C27.4883 26.1611 27.4883 47.2674 27.4825 58.6902C27.4825 59.0802 27.4564 59.4817 27.3607 59.8544C27.1316 60.7326 26.2675 61.3393 25.3714 61.3046C24.4725 61.27 23.6344 60.5968 23.4663 59.7273C23.3996 59.3777 23.4141 59.0108 23.4141 58.6497C23.4141 52.9557 23.4141 37.5752 23.4141 31.8811L23.4112 31.8869ZM53.5344 31.858C53.5344 26.2276 53.5344 20.6 53.5344 14.9695C53.5344 14.5766 53.5286 14.1808 53.5866 13.7937C53.7258 12.8693 54.4711 12.2222 55.4077 12.1673C56.6372 12.095 57.5593 12.8866 57.5622 14.1779C57.5825 25.9618 57.5767 47.4234 57.5767 59.2044C57.5767 59.3662 57.5593 59.5337 57.5275 59.6926C57.3506 60.6055 56.498 61.3046 55.5614 61.3075C54.6189 61.3075 53.7519 60.62 53.5953 59.6984C53.5257 59.2824 53.5344 58.8519 53.5344 58.4273C53.5315 52.7968 53.5344 37.4885 53.5344 31.8609V31.858ZM43.4953 31.8869C43.4953 26.5511 43.4953 21.2182 43.4953 15.8824C43.4953 15.2266 43.4721 14.5708 43.5301 13.9208C43.6229 12.901 44.4203 12.1962 45.4352 12.1644C46.5169 12.1326 47.3462 12.8028 47.497 13.8602C47.5521 14.2473 47.5463 14.6431 47.5463 15.0359C47.5463 26.2622 47.5463 47.1721 47.5463 58.3984C47.5463 58.8231 47.5521 59.2535 47.4825 59.6695C47.3317 60.6026 46.4908 61.296 45.5483 61.3104C44.5682 61.3277 43.6837 60.6055 43.5417 59.6319C43.4866 59.2448 43.4982 58.8491 43.4982 58.4562C43.4982 52.8257 43.4982 37.5145 43.4982 31.884L43.4953 31.8869ZM77.6637 31.7771C77.6637 37.4712 77.6637 52.8488 77.6637 58.5428C77.6637 58.9011 77.6753 59.2679 77.626 59.6204C77.4927 60.5448 76.6604 61.2642 75.7209 61.3075C74.7842 61.348 73.8911 60.698 73.7026 59.7706C73.6127 59.3257 73.6069 58.8606 73.6069 58.4042C73.6011 47.1779 73.6011 26.2709 73.6069 15.0446C73.6069 14.6199 73.6069 14.1895 73.6823 13.7735C73.8505 12.7999 74.6276 12.1702 75.6194 12.1615C76.9011 12.147 77.6637 12.9964 77.6637 14.4957C77.6724 20.2562 77.6666 26.0167 77.6666 31.7771H77.6637ZM67.6217 31.8234C67.6217 37.4538 67.6217 52.7621 67.6217 58.3897C67.6217 58.7826 67.6333 59.1784 67.5869 59.5655C67.4651 60.542 66.6097 61.2873 65.6324 61.3046C64.6523 61.322 63.7823 60.6084 63.6316 59.6262C63.5736 59.2419 63.5736 58.8433 63.5736 58.4504C63.5736 47.1923 63.5736 26.2536 63.5736 14.9955C63.5736 14.6026 63.5736 14.2068 63.6287 13.8197C63.7736 12.849 64.5421 12.1904 65.5251 12.1586C66.8126 12.1182 67.6188 12.9646 67.6217 14.4408C67.6333 20.2331 67.6275 26.0282 67.6275 31.8205L67.6217 31.8234ZM33.4532 31.8667C33.4532 26.3027 33.4532 20.7386 33.4532 15.1746C33.4532 14.7499 33.4358 14.3195 33.4822 13.9006C33.5953 12.8866 34.3899 12.1875 35.4106 12.1644C36.4487 12.1384 37.2636 12.771 37.4405 13.7851C37.5071 14.1693 37.51 14.5679 37.51 14.9579C37.5129 26.2507 37.5129 47.2183 37.51 58.5082C37.51 58.8664 37.5013 59.2304 37.452 59.5857C37.3332 60.4611 36.7967 60.9926 35.9673 61.2295C34.6276 61.6108 33.459 60.6026 33.4561 59.0253C33.4445 53.1984 33.4503 37.6994 33.4503 31.8725L33.4532 31.8667ZM4.51888 4.52323C4.51888 7.50747 4.52468 10.3097 4.51888 13.1148C4.51308 14.7644 3.58225 15.8333 2.21353 15.7957C0.873822 15.7611 0.0183781 14.7326 0.0125784 13.1206C0.003879 10.1335 0.0125784 7.14346 0.0125784 4.15634C0.0125784 0.322763 0.296758 0.033873 4.11581 0.0367619C7.25921 0.0367619 10.4055 0.0223174 13.5489 0.0483175C14.8654 0.0598731 15.7847 0.958322 15.8311 2.16588C15.8774 3.385 15.0481 4.32389 13.7432 4.48856C13.3169 4.54345 12.8761 4.52323 12.4441 4.52323C9.84874 4.52323 7.25631 4.52323 4.52469 4.52323H4.51888ZM4.51888 67.7902C5.04375 67.7902 5.43232 67.7902 5.8238 67.7902C8.35243 67.7902 10.884 67.7613 13.4126 67.8047C14.9234 67.8307 15.8775 68.8129 15.8253 70.1447C15.776 71.4273 14.8161 72.268 13.3285 72.2709C9.71534 72.2825 6.09928 72.2853 2.48612 72.2709C0.975316 72.2651 0.0357766 71.4273 0.0212775 69.9916C-0.0135202 66.2475 0.000976007 62.5035 0.0183749 58.7595C0.0212747 57.861 0.459148 57.1677 1.2711 56.7604C2.8196 55.9804 4.48699 57.1042 4.50729 58.9819C4.53919 61.8593 4.51599 64.7338 4.51599 67.7931L4.51888 67.7902Z" fill="white"/>
<path d="M111.13 58.2136C110.776 57.7687 110.503 57.0956 110.048 56.9367C109.367 56.6998 108.497 56.6275 107.818 56.8413C106.922 57.1244 106.606 58.0142 106.606 58.9473C106.6 61.4694 106.606 63.9885 106.603 66.5105C106.603 66.8976 106.603 67.2847 106.603 67.7903C105.02 67.7903 103.55 67.7903 102.077 67.7903C100.557 67.7903 99.0376 67.7469 97.5239 67.8163C96.1494 67.8827 95.2621 68.8649 95.2969 70.1158C95.3317 71.3667 96.2712 72.2594 97.6602 72.2681C101.346 72.2883 105.034 72.2565 108.723 72.2854C109.897 72.2941 110.532 71.5805 111.133 70.7572C111.13 66.574 111.13 62.3938 111.13 58.2136Z" fill="white"/>
<path d="M111.133 1.55024C110.411 0.357123 109.364 -0.0299905 107.963 0.00178747C104.495 0.0855657 101.024 0.016232 97.5529 0.0422321C96.2886 0.0508988 95.3868 0.91757 95.2998 2.07602C95.2099 3.29225 96.0189 4.27159 97.3064 4.46803C97.6254 4.51714 97.956 4.51137 98.2808 4.51137C100.63 4.51425 102.981 4.51137 105.33 4.51137C105.716 4.51137 106.104 4.51137 106.603 4.51137C106.603 7.1056 106.603 9.58139 106.603 12.0572C106.603 12.5252 106.586 12.9932 106.609 13.4612C106.67 14.6543 107.343 15.4921 108.41 15.7348C109.378 15.9572 110.312 15.4748 110.904 14.4492C110.976 14.325 111.054 14.2065 111.13 14.0852C111.13 9.90495 111.13 5.7247 111.13 1.54157L111.133 1.55024Z" fill="white"/>
</svg>
