<svg width="72" height="83" viewBox="0 0 72 83" fill="none" xmlns="http://www.w3.org/2000/svg">
<path d="M34.1553 83C33.4725 82.8703 32.7783 82.7697 32.107 82.6043C24.9663 80.8538 20.4952 76.7468 18.8168 70.1851C18.7894 70.0756 18.762 69.9683 18.7254 69.861C18.7072 69.8095 18.6729 69.7604 18.5953 69.6128C17.9239 69.6128 17.1955 69.6128 16.4693 69.6128C13.8569 69.6128 11.2423 69.6195 8.6299 69.6128C4.10392 69.5994 0.612393 66.8562 0.0620598 62.8968C-0.45402 59.1722 2.29536 55.7315 6.56786 54.7143C6.88984 54.6383 7.22781 54.4237 7.44246 54.1844C9.80135 51.5687 11.0436 48.5595 11.0779 45.1836C11.1235 40.8352 11.0847 36.4846 11.0938 32.134C11.1098 22.6123 17.2754 14.3873 27.0375 10.9018C27.5604 10.7163 27.7089 10.4882 27.7134 10.0009C27.734 7.83004 27.581 8.31294 27.903 6.17564C28.4739 2.38394 32.4084 -0.263094 36.6444 0.0208364C40.8027 0.300295 44.1663 3.45483 44.2851 7.24429C44.3422 9.05518 44.3216 8.18551 44.2897 9.99864C44.2805 10.4927 44.4609 10.7073 44.9656 10.8974C53.321 14.0452 58.5275 19.6165 60.4228 27.6515C60.7677 29.1114 60.8681 30.6361 60.8887 32.134C60.9481 36.4265 60.8933 40.7212 60.9161 45.016C60.9344 48.3605 62.083 51.3697 64.3962 53.981C64.7091 54.3342 65.2229 54.6383 65.707 54.759C69.7306 55.7539 72.448 59.2706 71.9387 62.8968C71.3975 66.7489 67.9905 69.5591 63.7431 69.6061C60.3315 69.6441 56.9199 69.6262 53.506 69.6329C53.4763 69.6329 53.4466 69.6486 53.3279 69.6821C53.2662 69.9325 53.1955 70.2231 53.1247 70.5138C51.5627 76.9995 45.6369 81.9448 38.3502 82.8502C38.1766 82.8726 38.0122 82.9486 37.8432 83H34.153H34.1553ZM58.032 54.5131C57.9681 54.3454 57.9361 54.2113 57.8699 54.095C56.0818 51.021 55.3351 47.7368 55.3671 44.2715C55.4059 40.2853 55.4036 36.2991 55.358 32.3129C55.3443 31.0654 55.2324 29.8022 54.9926 28.5748C53.1977 19.413 42.8807 12.9274 32.84 14.6131C23.1601 16.2384 16.636 23.3545 16.6269 32.2995C16.6223 36.4243 16.725 40.5536 16.5835 44.6761C16.515 46.6882 16.1176 48.7115 15.6358 50.6834C15.3161 51.989 14.5854 53.2142 14.0236 54.5086H58.032V54.5131ZM35.9045 64.5915C41.1292 64.5915 46.354 64.5915 51.5787 64.5915C55.5749 64.5915 59.5688 64.6004 63.565 64.587C65.1041 64.5825 66.2596 63.6547 66.4308 62.3558C66.5953 61.1173 65.6544 59.9189 64.2546 59.6395C63.871 59.5635 63.4622 59.5746 63.0649 59.5746C45.0249 59.5724 26.9827 59.5724 8.94274 59.5746C8.66644 59.5746 8.38784 59.5635 8.11382 59.5836C6.77567 59.6909 5.69555 60.6567 5.56539 61.8506C5.43979 63.0153 6.2436 64.1153 7.52923 64.4551C7.96082 64.5691 8.4358 64.5892 8.89022 64.5892C17.8942 64.596 26.9005 64.5937 35.9045 64.5937V64.5915ZM24.4274 69.6441C25.0554 73.2279 29.3918 78.1553 36.432 77.9697C41.7389 77.8311 47.1395 73.7913 47.5391 69.6441H24.4251H24.4274ZM33.2761 9.43078H38.7224C38.7224 7.76967 38.8274 8.7556 38.6881 7.07214C38.5877 5.85817 37.2746 5.00415 35.9547 5.02427C34.6737 5.04439 33.404 5.89394 33.3104 7.06991C33.1779 8.75337 33.2761 7.76744 33.2761 9.43078Z" fill="white"/>
</svg>
