<svg width="97" height="58" viewBox="0 0 97 58" fill="none" xmlns="http://www.w3.org/2000/svg">
<path d="M80.3045 25.8154C85.7645 31.1563 91.2483 36.521 96.7626 41.9148C91.258 47.3003 85.7742 52.665 80.3201 58C78.5505 56.2304 76.801 54.4801 75.0112 52.6903C77.2169 50.4921 79.4606 48.2566 81.7646 45.9593H39.9682V38.1932H81.8814C79.5358 35.759 77.2713 33.4089 75.0313 31.0841C76.7995 29.3174 78.5416 27.5761 80.3045 25.8146V25.8154Z" fill="white"/>
<path d="M16.4767 0C18.2456 1.76741 19.9817 3.50207 21.7506 5.26947C19.5002 7.60914 17.238 9.96072 14.9035 12.3875H56.7914V20.1529H15.0672C17.3436 22.4286 19.5821 24.6655 21.7945 26.8772C19.9817 28.6967 18.2352 30.45 16.4655 32.2263C10.9951 26.8757 5.51058 21.5102 0 16.1195C5.50463 10.7339 10.9884 5.36919 16.4767 0Z" fill="white"/>
</svg>
