<svg width="103" height="104" viewBox="0 0 103 104" fill="none" xmlns="http://www.w3.org/2000/svg">
<path d="M56.4132 55.179C53.3522 58.0738 50.213 60.8872 47.2458 63.8758C39.9814 71.1893 32.8265 78.6092 25.5559 85.9165C24.3164 87.162 23.534 88.5234 23.4745 90.1976C23.3337 94.1626 21.4557 96.7789 17.8908 98.5094C15.2711 99.7831 12.8611 101.492 10.3478 102.988C7.6499 104.593 5.14287 104.283 2.8925 102.099C2.4731 101.692 2.04744 101.288 1.64368 100.863C-0.174769 98.9444 -0.547223 96.3126 0.842437 94.0719C3.14915 90.3603 5.53724 86.702 7.92533 83.0405C8.23518 82.568 8.70466 82.1581 9.18353 81.8451C9.73126 81.4852 10.3416 81.1285 10.9707 81.0095C14.9018 80.2647 17.6248 77.8112 20.3008 75.0198C29.1177 65.8411 38.0879 56.8095 46.9955 47.7184C47.2678 47.443 47.5275 47.1551 48.1472 46.4948C47.7247 46.2538 47.2458 46.0974 46.9297 45.7781C44.0815 42.8959 44.044 38.8433 46.8796 35.9423C57.1675 25.4148 67.4523 14.8842 77.784 4.40364C83.496 -1.38898 92.5663 -1.45783 98.319 4.14389C103.993 9.66738 104.181 18.7897 98.5757 24.5917C89.8652 33.6046 81.0547 42.5141 72.2848 51.4675C70.7543 53.0291 69.2332 54.6001 67.6839 56.1429C64.651 59.1628 60.6479 59.2004 57.5838 56.2274C57.1112 55.7674 56.7387 55.2009 56.3225 54.6846C56.3506 54.8504 56.3788 55.0163 56.407 55.1822L56.4132 55.179ZM98.898 14.1863C98.898 9.80508 95.6899 5.32683 91.1047 4.14076C86.9044 3.05171 83.2487 4.17519 80.2096 7.27961C70.1314 17.563 60.0533 27.8464 49.9782 38.1329C48.1034 40.0481 47.9407 40.9588 49.7748 42.9116C53.299 46.6607 56.9516 50.2908 60.6198 53.8991C61.7966 55.057 63.4992 54.9287 64.7512 53.777C65.5837 53.0103 66.3474 52.1716 67.1393 51.3642C76.6447 41.666 86.1407 31.9616 95.6617 22.2791C97.7275 20.1792 98.9231 17.7445 98.898 14.1894V14.1863ZM50.5572 49.2675C50.2098 49.6962 50.0064 49.9873 49.7623 50.2376C40.5604 59.6385 31.2835 68.9674 22.1913 78.4716C19.4307 81.3569 16.4886 83.5694 12.5419 84.4238C11.7782 84.5896 10.9738 85.3031 10.5137 85.9854C8.41359 89.0835 6.42925 92.2631 4.40736 95.4144C3.4684 96.879 3.54664 97.436 4.84554 98.7755C6.4762 100.456 7.02392 100.603 8.54191 99.6986C11.1209 98.1621 13.6186 96.4628 16.2883 95.1077C18.5168 93.978 19.5622 92.4133 19.7468 89.9379C19.8939 87.9851 20.257 85.9979 21.7687 84.4582C31.0738 74.9947 40.3476 65.5031 49.659 56.0459C50.914 54.7722 52.31 53.6393 53.5118 52.5565C52.382 51.3048 51.5494 50.3784 50.551 49.2706L50.5572 49.2675Z" fill="white"/>
<path d="M84.3684 14.3598C83.9584 15.0295 83.7424 15.5897 83.3574 15.984C76.8473 22.6529 70.3215 29.3061 63.7895 35.9499C62.8725 36.8825 61.7895 36.9326 60.9945 36.1596C60.2027 35.3898 60.2183 34.2882 61.1166 33.3681C67.6549 26.6742 74.212 19.996 80.7534 13.3052C81.4326 12.6105 82.2526 12.3194 83.0664 12.7982C83.5953 13.1112 83.9114 13.7903 84.3684 14.363V14.3598Z" fill="white"/>
<path d="M90.2797 20.1706C89.8447 20.8778 89.6256 21.4317 89.2406 21.8261C82.7555 28.473 76.2517 35.1012 69.7416 41.7231C68.8433 42.6369 67.7197 42.7152 66.9372 41.986C66.0827 41.1911 66.1109 40.1052 67.0843 39.11C73.6038 32.4412 80.1327 25.7848 86.6554 19.1191C87.2938 18.4682 88.0794 18.127 88.8619 18.5839C89.4253 18.9094 89.779 19.5885 90.2766 20.1706H90.2797Z" fill="white"/>
</svg>
