<svg width="85" height="95" viewBox="0 0 85 95" fill="none" xmlns="http://www.w3.org/2000/svg">
<path d="M40.3222 95C39.5162 94.8516 38.6966 94.7364 37.9041 94.5471C29.4742 92.5435 24.1957 87.8428 22.2142 80.3324C22.1819 80.207 22.1495 80.0842 22.1064 79.9613C22.0848 79.9025 22.0444 79.8462 21.9527 79.6773C21.1602 79.6773 20.3002 79.6773 19.4429 79.6773C16.3589 79.6773 13.2721 79.685 10.1881 79.6773C4.84491 79.6619 0.722964 76.5222 0.0732651 71.9904C-0.535996 67.7272 2.7098 63.7891 7.75373 62.6248C8.13384 62.5378 8.53283 62.2921 8.78624 62.0183C11.571 59.0244 13.0376 55.5801 13.078 51.7162C13.1319 46.7391 13.0861 41.7595 13.0969 36.7799C13.1158 25.8815 20.3945 16.4673 31.9193 12.478C32.5366 12.2656 32.7119 12.0046 32.7173 11.4468C32.7415 8.96209 32.5609 9.51481 32.941 7.0685C33.615 2.72861 38.2599 -0.301131 43.2607 0.0238489C48.1698 0.343711 52.1408 3.95432 52.281 8.29166C52.3484 10.3644 52.3241 9.36895 52.2864 11.4442C52.2756 12.0097 52.4886 12.2554 53.0844 12.4729C62.9485 16.0758 69.095 22.4526 71.3325 31.6493C71.7396 33.3203 71.8582 35.0654 71.8825 36.7799C71.9526 41.693 71.8879 46.6086 71.9148 51.5243C71.9364 55.3524 73.2924 58.7967 76.0233 61.7855C76.3926 62.1898 76.9992 62.5378 77.5707 62.676C82.3208 63.8147 85.5289 67.8398 84.9277 71.9904C84.2888 76.3993 80.2666 79.6159 75.2523 79.6696C71.2247 79.7131 67.1971 79.6927 63.1668 79.7003C63.1318 79.7003 63.0967 79.7182 62.9565 79.7566C62.8838 80.0432 62.8002 80.3759 62.7166 80.7085C60.8727 88.1319 53.8769 93.7922 45.2745 94.8285C45.0696 94.8541 44.8755 94.9411 44.676 95H40.3195H40.3222ZM68.51 62.3945C68.4345 62.2026 68.3968 62.049 68.3186 61.916C66.2077 58.3975 65.3262 54.6385 65.3639 50.6722C65.4098 46.1096 65.4071 41.5471 65.3532 36.9846C65.337 35.5567 65.2049 34.111 64.9218 32.7061C62.8029 22.2197 50.6231 14.7964 38.7694 16.7258C27.3417 18.5861 19.6397 26.7311 19.6289 36.9693C19.6235 41.6904 19.7448 46.4167 19.5777 51.1353C19.4968 53.4383 19.0278 55.7541 18.4589 58.0111C18.0815 59.5055 17.2188 60.9078 16.5557 62.3894H68.51V62.3945ZM42.3873 73.93C48.5553 73.93 54.7234 73.93 60.8915 73.93C65.6093 73.93 70.3243 73.9403 75.042 73.9249C76.859 73.9198 78.2231 72.8578 78.4253 71.3711C78.6194 69.9535 77.5087 68.5819 75.8562 68.262C75.4033 68.175 74.9207 68.1878 74.4516 68.1878C53.1544 68.1853 31.8546 68.1853 10.5574 68.1878C10.2312 68.1878 9.90232 68.175 9.57882 68.1981C7.99905 68.3209 6.72391 69.4263 6.57025 70.7928C6.42198 72.126 7.37092 73.385 8.88868 73.7739C9.39819 73.9044 9.95893 73.9275 10.4954 73.9275C21.1251 73.9351 31.7575 73.9326 42.3873 73.9326V73.93ZM28.8379 79.7131C29.5793 83.815 34.6987 89.4549 43.01 89.2425C49.2751 89.0838 55.6508 84.4599 56.1226 79.7131H28.8352H28.8379ZM39.2843 10.7943H45.7139C45.7139 8.893 45.8379 10.0215 45.6735 8.09462C45.5549 6.70514 44.0048 5.72764 42.4466 5.75067C40.9342 5.7737 39.4353 6.74608 39.3248 8.09206C39.1684 10.0189 39.2843 8.89044 39.2843 10.7943Z" fill="white"/>
</svg>
