<svg width="72" height="51" viewBox="0 0 72 51" fill="none" xmlns="http://www.w3.org/2000/svg">
<path d="M35.8088 22.6845C46.7764 22.6845 57.7461 22.6845 68.7137 22.6845C70.0684 22.6845 70.9476 23.2796 71.3601 24.4483C71.8854 25.9385 71.1169 27.6404 69.7037 28.0308C69.2651 28.1522 68.7919 28.1617 68.336 28.1617C46.6158 28.1688 24.8956 28.1665 3.17536 28.1617C2.77157 28.1617 2.35909 28.1546 1.96615 28.0665C0.728716 27.7928 -0.0767005 26.5954 0.00579501 25.2101C0.0839487 23.8771 1.08692 22.7892 2.33738 22.694C2.6348 22.6726 2.93222 22.6845 3.2318 22.6845C14.0908 22.6845 24.952 22.6845 35.811 22.6845H35.8088Z" fill="white"/>
<path d="M35.7605 0.790635C46.7281 0.790635 57.6978 0.790635 68.6654 0.790635C70.261 0.790635 71.3573 1.72612 71.5115 3.19718C71.6743 4.75631 70.6583 6.10835 69.1951 6.26784C68.9259 6.2964 68.6545 6.2845 68.3831 6.2845C46.6347 6.2845 24.8885 6.2845 3.14003 6.2845C2.78834 6.2845 2.43013 6.29402 2.08713 6.22737C0.801933 5.97744 -0.0577575 4.78726 0.0030287 3.38046C0.0616439 2.007 1.06896 0.902512 2.36718 0.800157C2.63637 0.778733 2.90774 0.790635 3.17911 0.790635C14.0403 0.790635 24.8993 0.790635 35.7605 0.790635Z" fill="white"/>
<path d="M35.6863 50.0676C24.8534 50.0676 14.0204 50.0676 3.18962 50.0652C2.78582 50.0652 2.37335 50.0652 1.97824 49.9819C0.751657 49.7272 -0.0711269 48.5156 0.0048558 47.135C0.0764967 45.8258 1.03605 44.7403 2.24526 44.6213C2.54051 44.5927 2.8401 44.6023 3.13752 44.6023C24.8838 44.6023 46.63 44.6023 68.3763 44.6094C68.8843 44.6094 69.4162 44.6308 69.8938 44.7975C70.9814 45.1783 71.6088 46.3161 71.5198 47.5682C71.4351 48.7822 70.6015 49.7938 69.4813 49.9985C69.1101 50.0676 68.7258 50.0676 68.3481 50.0676C57.4608 50.0699 46.5758 50.0699 35.6885 50.0699L35.6863 50.0676Z" fill="white"/>
</svg>
