<svg width="83" height="83" viewBox="0 0 83 83" fill="none" xmlns="http://www.w3.org/2000/svg">
<path d="M41.0733 16.2215C43.5394 16.2215 43.8083 18.5469 43.8106 19.5481C43.8106 20.2309 43.8106 20.9161 43.8106 21.6266V22.6325V23.5553H44.73C45.1299 23.5553 45.516 23.5553 45.8975 23.5506C46.2607 23.5506 46.6169 23.546 46.9709 23.546C47.4604 23.546 47.8626 23.5506 48.2396 23.5576C49.2577 23.5783 50.1472 24.0189 50.6804 24.7664C51.1746 25.4585 51.2987 26.312 51.0298 27.1679C50.6689 28.3191 49.6324 29.0712 48.3913 29.0827C47.5914 29.0896 46.7157 29.0942 45.6378 29.0942C45.0563 29.0942 44.4749 29.0942 43.8934 29.0942C43.3119 29.0942 42.7281 29.0942 42.1466 29.0942H41.4318C38.5842 29.0988 36.5593 30.9444 36.5064 33.5789C36.4513 36.2504 38.4141 38.2043 41.2778 38.3266C43.5854 38.4258 45.7114 39.2056 47.4305 40.5828C49.1428 41.9531 50.3265 43.8194 50.8574 45.981C52.0318 50.7633 49.6209 55.6656 45.123 57.638C44.1738 58.0533 43.7532 58.72 43.7968 59.7327C43.8382 60.7247 43.8405 61.7951 43.7991 63.2047C43.7555 64.7665 42.6155 65.9038 41.0917 65.9107H41.0779C39.5334 65.9107 38.3842 64.7572 38.3474 63.1678C38.329 62.3603 38.3336 61.5552 38.3382 60.7016C38.3405 60.3072 38.3428 59.9081 38.3428 59.4997V58.5769H37.4235C37.0144 58.5769 36.6145 58.5793 36.2237 58.5839C35.8514 58.5862 35.4883 58.5908 35.1274 58.5908C34.6264 58.5908 34.215 58.5839 33.8335 58.5723C32.8475 58.54 31.9833 58.0971 31.4639 57.3589C30.9743 56.6622 30.8502 55.8132 31.1191 54.9643C31.4845 53.8108 32.5188 53.0611 33.7576 53.0495C34.3598 53.0449 34.9642 53.0426 35.5664 53.0426C36.0675 53.0426 36.5708 53.0426 37.0718 53.0426C37.5752 53.0426 38.0785 53.0426 38.5819 53.0426C39.5954 53.0426 40.4137 53.038 41.1583 53.0288C43.3762 52.9988 45.2839 51.3447 45.5964 49.1808C45.9297 46.8761 44.6771 44.7814 42.5488 44.087C41.9053 43.8771 41.2319 43.8287 40.7837 43.8079C36.0284 43.6095 32.0775 40.2691 31.1743 35.6875C30.2526 31.0159 32.6935 26.3974 37.1086 24.4573C38.0027 24.0651 38.398 23.4353 38.3543 22.4802C38.3222 21.7835 38.329 21.0891 38.3359 20.3578C38.3382 20.0741 38.3428 19.7903 38.3428 19.5066C38.3474 17.4257 39.3357 16.2307 41.0595 16.2215H41.0779" fill="white"/>
<path d="M40.8653 82.1343C35.232 82.1343 29.5137 80.9601 24.0574 78.4824C14.1032 73.9608 6.50026 65.8173 2.64821 55.5537C-1.20384 45.2925 -0.842995 34.1384 3.66178 24.147C8.16886 14.1557 16.2798 6.52429 26.5052 2.65785C36.1261 -0.980195 46.533 -0.874076 56.0207 2.91854C56.9975 3.30841 57.4525 4.43651 57.0204 5.39619C56.6182 6.28898 55.5863 6.71807 54.6807 6.35358C46.0412 2.89547 36.5651 2.79858 27.8037 6.11135C18.4977 9.62943 11.1154 16.5756 7.01509 25.6673C2.91482 34.759 2.58615 44.9118 6.09115 54.2503C9.59614 63.5911 16.5165 71.001 25.5743 75.1166C44.2738 83.6131 66.3748 75.2573 74.8396 56.4857C81.013 42.7987 78.4526 26.8115 68.3169 15.7567L71.022 13.2583C82.1576 25.4066 84.9708 42.9717 78.1883 58.0106C71.3576 73.158 56.4436 82.1343 40.8653 82.1343Z" fill="white"/>
<path d="M59.6243 7.23807L82.1321 14.7333L72.3411 18.1707L70.4633 28.4089L59.6243 7.23807Z" fill="white"/>
</svg>
