<svg width="109" height="109" viewBox="0 0 109 109" fill="none" xmlns="http://www.w3.org/2000/svg">
<path d="M10.7313 86.062C10.1716 86.0037 9.98207 85.4906 9.73719 85.135C5.23035 78.57 2.17235 71.4162 0.860526 63.5249C0.265833 59.9538 -0.0927321 56.3798 0.0209592 52.7679C0.254172 45.4771 1.81961 38.4924 4.86013 31.8429C6.85993 27.4672 9.35822 23.4064 12.4221 19.7129C14.83 16.8094 17.5294 14.1741 20.4941 11.8215C23.5726 9.38155 26.8813 7.29429 30.394 5.5656C34.8309 3.38506 39.4981 1.84002 44.3781 0.991711C46.2962 0.659382 48.2523 0.539861 50.1705 0.268751C52.4676 -0.0577476 54.7939 -0.0577476 57.024 0.114247C61.0295 0.423254 65.0349 1.00629 68.9354 2.15778C75.9434 4.22171 82.2956 7.48086 87.9918 12.0577C92.8426 15.9552 96.9151 20.5466 100.163 25.826C103.702 31.5776 106.159 37.784 107.331 44.4655C108.039 48.5059 108.424 52.5843 108.176 56.6742C107.745 63.8455 106.2 70.7603 103.014 77.2582C101.541 80.2579 99.9527 83.1818 97.9471 85.8667C97.813 86.0474 97.6876 86.2136 97.469 86.2864C96.816 85.753 96.5507 84.8872 95.9939 84.3391C94.1166 82.4851 92.3616 80.5144 90.4172 78.7158C86.7354 75.3138 82.6221 72.6056 78.1939 70.3463C75.3575 68.8975 72.3461 67.8539 69.2969 66.9239C64.4169 65.4343 59.397 64.8104 54.3275 64.723C51.1296 64.6705 47.9316 65.0087 44.7541 65.5217C39.3931 66.3875 34.312 68.1221 29.4962 70.5213C26.0767 72.2237 22.8467 74.3343 19.9024 76.8238C17.1242 79.1705 14.2848 81.4473 12.1714 84.479C11.7691 85.0533 11.4134 85.7267 10.7254 86.0678L10.7313 86.062ZM54.0156 57.6887C54.7415 57.6887 55.479 57.7732 56.1932 57.6741C61.5484 56.9308 66.1398 54.6657 69.7691 50.6224C70.7953 49.4796 71.7514 48.2669 72.4773 46.888C73.5996 44.7512 74.1477 42.4482 74.6491 40.1103C75.2205 37.4516 75.0339 34.8222 74.4888 32.2218C73.8008 28.9306 72.3811 25.9572 70.1947 23.3714C67.8335 20.5758 64.9941 18.3952 61.5338 17.2029C57.9394 15.9669 54.2692 15.5471 50.4183 16.1943C45.9931 16.9406 42.2617 18.9316 39.1832 22.0013C36.0465 25.1293 34.0905 29.0093 33.3821 33.4579C32.8865 36.5742 33.1197 39.6613 33.9739 42.6465C35.1341 46.7044 37.3292 50.1676 40.6729 52.8379C44.5763 55.9542 48.9607 57.7383 54.0127 57.6858L54.0156 57.6887Z" fill="#EFEFEF"/>
<path d="M10.7308 86.0538C11.4188 85.7128 11.7744 85.0393 12.1767 84.4651C14.2902 81.4362 17.1296 79.1595 19.9077 76.8098C22.8521 74.3203 26.082 72.2097 29.5015 70.5073C34.3174 68.111 39.3985 66.3736 44.7595 65.5078C47.9399 64.9947 51.135 64.6536 54.3329 64.709C59.4024 64.7935 64.4223 65.4203 69.3022 66.91C72.3515 67.8399 75.36 68.8864 78.1993 70.3324C82.6275 72.5916 86.7437 75.2998 90.4226 78.7018C92.3699 80.5004 94.1219 82.4711 95.9993 84.3251C96.5561 84.8761 96.8214 85.739 97.4744 86.2725C96.6144 87.9254 95.3142 89.243 94.084 90.5986C92.7664 92.0503 91.3438 93.4088 89.8775 94.7206C86.3035 97.9098 82.3505 100.493 78.0798 102.653C73.7216 104.857 69.1244 106.317 64.396 107.387C59.4577 108.503 54.4029 108.579 49.4092 108.215C45.0073 107.894 40.6754 106.854 36.4659 105.393C30.3528 103.271 24.8227 100.117 19.8261 96.0528C16.5116 93.3563 13.5381 90.2837 10.9728 86.838C10.7804 86.5786 10.6871 86.3512 10.7337 86.0509L10.7308 86.0538Z" fill="#BABABA"/>
<path d="M54.014 57.6818C48.962 57.7342 44.5776 55.9501 40.6742 52.8338C37.3305 50.1635 35.1354 46.7003 33.9752 42.6424C33.121 39.6573 32.8878 36.5701 33.3834 33.4538C34.0918 29.0024 36.0449 25.1223 39.1845 21.9973C42.263 18.9305 45.9944 16.9365 50.4196 16.1903C54.2705 15.5402 57.9407 15.96 61.5351 17.1989C64.9954 18.3883 67.8348 20.5688 70.196 23.3674C72.3795 25.9531 73.7992 28.9295 74.4901 32.2178C75.0352 34.8211 75.2189 37.4476 74.6504 40.1062C74.149 42.4471 73.6039 44.7472 72.4786 46.884C71.7527 48.2629 70.7966 49.4785 69.7704 50.6183C66.1381 54.6616 61.5497 56.9267 56.1945 57.6701C55.4832 57.7692 54.7428 57.6847 54.0169 57.6847L54.014 57.6818Z" fill="#BABABA"/>
</svg>
