<svg width="79" height="86" viewBox="0 0 79 86" fill="none" xmlns="http://www.w3.org/2000/svg">
<path d="M12.001 85.4178C11.4308 85.2908 10.859 85.1738 10.2922 85.0351C4.29954 83.5763 0.0224418 78.2592 0.0156743 72.1467C-0.00293652 52.5209 -0.00801219 32.895 0.0173661 13.2708C0.0275175 5.98363 6.03034 0.0499245 13.3985 0.0265305C24.433 -0.00688938 35.4675 -0.0119024 46.502 0.0298725C53.7349 0.0582795 59.7444 6.02206 59.7986 13.1088C59.8138 15.1424 58.4163 16.6563 56.4926 16.693C54.5588 16.7281 53.9683 15.2928 53.8905 13.2458C53.7467 9.5111 51.7181 4.73373 46.233 4.69028C35.3389 4.60339 24.4449 4.6719 13.5508 4.69028C9.74911 4.69696 5.08627 9.61471 5.08288 13.3561C5.06596 32.9251 5.06596 52.4958 5.08288 72.0648C5.08627 75.8079 9.74404 80.7356 13.5406 80.7423C24.4635 80.7641 35.3846 80.7657 46.3075 80.7423C50.0262 80.734 53.7484 75.8898 53.8922 72.1985C53.9717 70.1449 54.5503 68.7112 56.4842 68.7412C58.44 68.7713 59.8273 70.3003 59.8003 72.3974C59.7191 78.702 54.772 84.2999 48.446 85.2523C48.2311 85.2841 48.023 85.3626 47.8132 85.4194H12.001V85.4178Z" fill="white"/>
<path d="M39.8755 46.1358C39.2782 46.3113 38.7571 46.5419 38.2157 46.6104C36.7404 46.7942 35.3937 46.0172 34.7829 44.7038C34.1535 43.3536 34.4411 41.8798 35.6001 40.8254C38.0415 38.603 40.5032 36.4023 42.9564 34.1932C45.4722 31.9273 47.9813 29.6548 50.5039 27.3973C54.1466 24.1372 59.0107 24.1088 62.6381 27.3555C67.5802 31.777 72.4951 36.2285 77.4236 40.665C78.459 41.5957 78.9581 42.712 78.6096 44.0972C78.2814 45.4006 77.4371 46.333 76.1124 46.5135C75.1734 46.6405 74.1768 46.3497 73.1431 46.2394C73.1431 48.5538 73.1972 51.0736 73.1296 53.5885C73.045 56.7517 71.595 59.2247 68.7746 60.7136C67.6258 61.3202 66.2266 61.7296 64.9324 61.7546C59.3339 61.8666 53.7337 61.8465 48.1336 61.7897C43.6112 61.7429 39.9618 58.0968 39.8839 53.6336C39.8416 51.1388 39.8755 48.644 39.8755 46.1358ZM56.5287 56.4709C59.7044 56.4709 62.8818 56.4793 66.0575 56.4676C67.5192 56.4626 68.3229 55.7491 68.3263 54.424C68.3415 49.6015 68.3398 44.779 68.3144 39.9565C68.3127 39.6357 68.1351 39.2229 67.8847 39.0074C64.7936 36.3622 61.6805 33.737 58.5556 31.1253C57.2123 30.0024 56.1311 30.0291 54.7692 31.1737C51.6256 33.8139 48.4821 36.4524 45.3707 39.1227C45.0797 39.3733 44.8682 39.8479 44.8665 40.2205C44.8327 44.8876 44.8412 49.5564 44.8462 54.2235C44.8479 55.7992 45.5805 56.4659 47.3029 56.4693C50.3787 56.4743 53.4546 56.4693 56.5304 56.4693L56.5287 56.4709Z" fill="white"/>
<path d="M29.8855 16.8144C28.7891 16.8144 27.6928 16.8278 26.5981 16.8111C24.6254 16.7827 23.145 15.9973 23.1568 14.1224C23.1687 12.2827 24.6355 11.3369 26.5609 11.3185C28.8094 11.2968 31.0579 11.2918 33.3048 11.3185C35.2166 11.3419 36.6733 12.3228 36.6615 14.1675C36.6496 15.9722 35.2081 16.7576 33.3403 16.8044C32.1881 16.8328 31.0359 16.8094 29.8838 16.8111L29.8855 16.8144Z" fill="white"/>
<path d="M29.9207 73.5792C28.063 73.5892 26.5352 72.097 26.5268 70.264C26.5183 68.4242 28.0224 66.922 29.8818 66.9119C31.7412 66.9036 33.2673 68.3908 33.2757 70.2255C33.2859 72.0603 31.7767 73.5692 29.919 73.5775L29.9207 73.5792Z" fill="white"/>
</svg>
